<svg xmlns="http://www.w3.org/2000/svg" width="27.006" height="27" viewBox="0 0 27.006 27">
    <path id="prefix__Icon_awesome-instagram" d="M13.5 8.815a6.922 6.922 0 106.922 6.922A6.911 6.911 0 0013.5 8.815zm0 11.423a4.5 4.5 0 114.5-4.5 4.509 4.509 0 01-4.5 4.5zm8.82-11.706a1.615 1.615 0 11-1.615-1.615 1.611 1.611 0 011.616 1.615zm4.585 1.639a7.99 7.99 0 00-2.181-5.657 8.043 8.043 0 00-5.657-2.181c-2.229-.127-8.911-.127-11.14 0a8.031 8.031 0 00-5.656 2.175A8.017 8.017 0 00.09 10.165c-.127 2.229-.127 8.911 0 11.14a7.99 7.99 0 002.181 5.657 8.053 8.053 0 005.657 2.181c2.229.127 8.911.127 11.14 0a7.99 7.99 0 005.657-2.181 8.043 8.043 0 002.181-5.662c.127-2.229.127-8.9 0-11.134zM24.026 23.7a4.556 4.556 0 01-2.567 2.567c-1.777.7-5.995.542-7.959.542s-6.187.157-7.959-.542A4.556 4.556 0 012.975 23.7c-.7-1.777-.542-5.995-.542-7.959s-.157-6.187.542-7.959a4.556 4.556 0 012.567-2.57c1.777-.7 5.995-.542 7.959-.542s6.187-.157 7.959.542a4.556 4.556 0 012.567 2.567c.7 1.777.542 5.995.542 7.959s.162 6.187-.543 7.962z" data-name="Icon awesome-instagram" transform="translate(.005 -2.238)" style="fill:#fff;opacity:.503"/>
</svg>
