<svg xmlns="http://www.w3.org/2000/svg" width="27" height="27" viewBox="0 0 27 27">
    <path id="prefix__Icon_ionic-logo-facebook" d="M30.009 4.5H5.991A1.491 1.491 0 004.5 5.991v24.018A1.491 1.491 0 005.991 31.5H18V20.813h-3.227v-3.938H18v-2.911c0-3.488 2.419-5.386 5.534-5.386 1.491 0 3.094.113 3.466.162v3.642h-2.482c-1.695 0-2.018.8-2.018 1.983v2.51h4.036l-.527 3.938H22.5V31.5h7.509a1.491 1.491 0 001.491-1.491V5.991A1.491 1.491 0 0030.009 4.5z" data-name="Icon ionic-logo-facebook" transform="translate(-4.5 -4.5)" style="fill:#fff;opacity:.503"/>
</svg>
