<svg xmlns="http://www.w3.org/2000/svg" width="35.995" height="27.001" viewBox="0 0 35.995 27.001">
    <path id="prefix__Icon_ionic-logo-youtube" d="M35.761 10.462a5.466 5.466 0 00-5.2-5.709C26.663 4.57 22.69 4.5 18.633 4.5h-1.266c-4.05 0-8.03.07-11.925.253a5.478 5.478 0 00-5.2 5.723C.07 12.98-.007 15.483 0 17.986s.07 5.006.239 7.514a5.484 5.484 0 005.2 5.73c4.092.19 8.29.274 12.558.267q6.412.021 12.558-.267a5.485 5.485 0 005.2-5.73c.169-2.51.246-5.013.239-7.523q.02-3.753-.233-7.515zM14.555 24.884V11.067l10.2 6.9z" data-name="Icon ionic-logo-youtube" transform="translate(0 -4.5)" style="fill:#fff;opacity:.503"/>
</svg>
