<svg xmlns="http://www.w3.org/2000/svg" width="28.908" height="27" viewBox="0 0 28.908 27">
    <path id="prefix__Icon_simple-snapchat" d="M14.7 1.189a7.7 7.7 0 017.143 4.6c.637 1.437.485 3.877.36 5.838v.072c-.014.217-.027.416-.036.614a.936.936 0 00.483.108 3.384 3.384 0 001.244-.363 1.2 1.2 0 01.559-.125 1.648 1.648 0 01.613.108 1.145 1.145 0 01.884 1.009q.027.811-1.461 1.407c-.107.035-.252.09-.414.143-.542.163-1.372.434-1.606.976a1.26 1.26 0 00.145 1.046l.018.018c.072.164 1.838 4.186 5.771 4.835a.6.6 0 01.506.613.73.73 0 01-.054.271c-.289.685-1.533 1.19-3.789 1.531a3.234 3.234 0 00-.2.687 4.847 4.847 0 01-.161.666.631.631 0 01-.668.488H24a3.843 3.843 0 01-.648-.089 7.267 7.267 0 00-1.533-.163 5.852 5.852 0 00-1.1.089 5.4 5.4 0 00-2.075 1.065 6.566 6.566 0 01-3.968 1.551c-.072 0-.143-.018-.217-.018h-.179a6.409 6.409 0 01-3.95-1.551 5.342 5.342 0 00-2.056-1.065 7.977 7.977 0 00-1.118-.089 7.563 7.563 0 00-1.532.179 3.467 3.467 0 01-.65.089.672.672 0 01-.7-.506c-.073-.231-.108-.469-.163-.683a3.2 3.2 0 00-.2-.687C1.6 23.59.355 23.085.067 22.381A.723.723 0 010 22.11a.6.6 0 01.507-.61c3.931-.65 5.7-4.672 5.771-4.842l.022-.038a1.2 1.2 0 00.143-1.047c-.235-.523-1.065-.793-1.6-.974a2.69 2.69 0 01-.417-.143c-1.333-.524-1.514-1.12-1.442-1.533a1.424 1.424 0 011.407-.955 1.22 1.22 0 01.461.089 3.3 3.3 0 001.33.361 1.139 1.139 0 00.56-.126l-.055-.685c-.118-1.959-.271-4.4.37-5.826a7.575 7.575 0 017.075-4.573l.5-.018h.068z" data-name="Icon simple-snapchat" transform="translate(0 -1.188)" style="fill:#fff;opacity:.503"/>
</svg>
